{"title":"Mohabbat Barsa De - Creature 3D 1080p Ft Arjun Surveen Chawla Ra","uid":10956930,"size":74021504,"categoryP":"video","categoryS":"music_videos","magnet":"?xt=urn:btih:6bae953a88c7e3201542984d59d38c7f8d9dc798&amp;dn=Mohabbat+Barsa+De+-+Creature+3D+1080p+Ft+Arjun+Surveen+Chawla+Ra&amp;tr=udp%3A%2F%2Ftracker.openbittorrent.com%3A80&amp;tr=udp%3A%2F%2Fopen.demonii.com%3A1337&amp;tr=udp%3A%2F%2Ftracker.coppersurfer.tk%3A6969&amp;tr=udp%3A%2F%2Fexodus.desync.com%3A6969","seeders":1,"leechers":0,"uploader":"TipicalGujjar","files":1,"time":1409686619,"description":"[img]http://i2.ytimg.com/vi/xNtRWIAs4mM/hqdefault.jpg[/img]\n\n[center][list]\n\n[/list][/center]\n[color=red][size=200]Mohabbat Barsa De - Creature 3D 1080p Ft Arjun Surveen Chawla Rajneesh {Tipical Gujjar}[/size][/color]\n==========================================================\n[color=purple]General\nComplete name : C:UsersAdnanDownloadsVideoMohabbat Barsa De Ft Arjun Creature 3D Surveen Chawla Rajneesh Duggal Full HD.mp4\nFormat : MPEG-4\nFormat profile : Base Media\nCodec ID : isom\nFile size : 70.6 MiB\nDuration : 3mn 13s\nOverall bit rate : 3 057 Kbps\nWriting application : Lavf54.29.104\n\nVideo\nID : 1\nFormat : AVC\nFormat/Info : Advanced Video Codec\nFormat profile : &lt;a class=&quot;__cf_email__&quot; href=&quot;/cdn-cgi/l/email-protection&quot; data-cfemail=&quot;2961404e4169651d0719&quot;&gt;[email&amp;#160;protected]&lt;/a&gt;&lt;script cf-hash='f9e31' type=&quot;text/javascript&quot;&gt;\n/* &lt;![CDATA[ */!function(){try{var t=&quot;currentScript&quot;in document?document.currentScript:function(){for(var t=document.getElementsByTagName(&quot;script&quot;),e=t.length;e--;)if(t[e].getAttribute(&quot;cf-hash&quot;))return t[e]}();if(t&amp;&amp;t.previousSibling){var e,r,n,i,c=t.previousSibling,a=c.getAttribute(&quot;data-cfemail&quot;);if(a){for(e=&quot;&quot;,r=parseInt(a.substr(0,2),16),n=2;a.length-n;n+=2)i=parseInt(a.substr(n,2),16)^r,e+=String.fromCharCode(i);e=document.createTextNode(e),c.parentNode.replaceChild(e,c)}}}catch(u){}}();/* ]]&gt; */&lt;/script&gt;\nFormat settings, CABAC : Yes\nFormat settings, ReFrames : 2 frames\nCodec ID : avc1\nCodec ID/Info : Advanced Video Coding\nDuration : 3mn 13s\nBit rate : 2 926 Kbps\nWidth : 1 920 pixels\nHeight : 1 080 pixels\nDisplay aspect ratio : 16:9\nFrame rate mode : Constant\nFrame rate : 24.000 fps\nColor space : YUV\nChroma subsampling : 4:2:0\nBit depth : 8 bits\nScan type : Progressive\nBits/(Pixel*Frame) : 0.059\nStream size : 67.6 MiB (96%)\n\nAudio\nID : 2\nFormat : AAC\nFormat/Info : Advanced Audio Codec\nFormat profile : LC\nCodec ID : 40\nDuration : 3mn 13s\nBit rate mode : Constant\nBit rate : 126 Kbps\nChannel(s) : 2 channels\nChannel positions : Front: L\n R\nSampling rate : 44.1 KHz\nCompression mode : Lossy\nStream size : 2.90 MiB (4%)\n\n[/color]\n========================================================\n[img]http://i.imgur.com/aUyKcKp.png[/img]\n[img]http://i.imgur.com/BCaVxgI.png[/img]\n[img]http://i.imgur.com/tav5jJm.png[/img]\n[img]http://i.imgur.com/rL0mLTl.png[/img]\n[img]http://i.imgur.com/hCP0qT3.png[/img]\n[img]http://i.imgur.com/oqgiB3y.png[/img]\n[img]http://i.imgur.com/X7hNmsc.png[/img]\n[img]http://i.imgur.com/OMnIlAF.png[/img]\n\n","torrent":{"xt":"urn:btih:6bae953a88c7e3201542984d59d38c7f8d9dc798","amp;dn":"Mohabbat+Barsa+De+-+Creature+3D+1080p+Ft+Arjun+Surveen+Chawla+Ra","amp;tr":["udp%3A%2F%2Ftracker.openbittorrent.com%3A80","udp%3A%2F%2Fopen.demonii.com%3A1337","udp%3A%2F%2Ftracker.coppersurfer.tk%3A6969","udp%3A%2F%2Fexodus.desync.com%3A6969"],"infoHash":"6bae953a88c7e3201542984d59d38c7f8d9dc798","infoHashBuffer":{"type":"Buffer","data":[107,174,149,58,136,199,227,32,21,66,152,77,89,211,140,127,141,157,199,152]},"announce":[],"urlList":[]}}